HIERARCHY
ROOT Hips
{
	OFFSET 46.458900 -4.192846 95.525200
	CHANNELS 6 Xposition Yposition Zposition Xrotation Yrotation Zrotation
	JOINT spine
	{
		OFFSET 0.000000 -0.458068 7.965683
		CHANNELS 3 Xrotation Yrotation Zrotation
		JOINT spine1
		{
			OFFSET 0.000000 -0.000002 10.243103
			CHANNELS 3 Xrotation Yrotation Zrotation
			JOINT spine2
			{
				OFFSET 0.000000 -0.000001 9.814751
				CHANNELS 3 Xrotation Yrotation Zrotation
				JOINT Neck
				{
					OFFSET 0.000000 -1.201384 25.198608
					CHANNELS 3 Xrotation Yrotation Zrotation
					JOINT Head
					{
						OFFSET 0.000000 -0.000001 7.613144
						CHANNELS 3 Xrotation Yrotation Zrotation
						End Site
						{
							OFFSET 0.000000 6.077327 18.428101
						}
					}
				}
				JOINT RightShoulder
				{
					OFFSET -4.132698 0.575449 10.599197
					CHANNELS 3 Xrotation Yrotation Zrotation
					JOINT RightArm
					{
						OFFSET 0.000000 -0.000002 13.901794
						CHANNELS 3 Xrotation Yrotation Zrotation
						JOINT RightArmRoll
						{
							OFFSET 0.000000 -0.000001 7.017883
							CHANNELS 3 Xrotation Yrotation Zrotation
							JOINT RightForeArm
							{
								OFFSET 0.000000 -0.000003 20.440598
								CHANNELS 3 Xrotation Yrotation Zrotation
								JOINT RightForeArmRoll
								{
									OFFSET 0.000000 -0.000001 7.875153
									CHANNELS 3 Xrotation Yrotation Zrotation
									JOINT RightHand
									{
										OFFSET 0.000000 -0.000002 15.803696
										CHANNELS 3 Xrotation Yrotation Zrotation
										End Site
										{
											OFFSET 0.000000 0.000000 0.100006
										}
									}
								}
							}
						}
					}
				}
				JOINT LeftShoulder
				{
					OFFSET 4.132698 0.575449 10.599197
					CHANNELS 3 Xrotation Yrotation Zrotation
					JOINT LeftArm
					{
						OFFSET 0.000000 -0.000002 13.901794
						CHANNELS 3 Xrotation Yrotation Zrotation
						JOINT LeftArmRoll
						{
							OFFSET 0.000000 -0.000001 7.017883
							CHANNELS 3 Xrotation Yrotation Zrotation
							JOINT LeftForeArm
							{
								OFFSET 0.000000 -0.000003 20.440598
								CHANNELS 3 Xrotation Yrotation Zrotation
								JOINT LeftForeArmRoll
								{
									OFFSET 0.000000 -0.000001 7.875153
									CHANNELS 3 Xrotation Yrotation Zrotation
									JOINT LeftHand
									{
										OFFSET 0.000000 -0.000002 15.803696
										CHANNELS 3 Xrotation Yrotation Zrotation
										End Site
										{
											OFFSET 0.000000 0.000000 0.100006
										}
									}
								}
							}
						}
					}
				}
			}
		}
	}
	JOINT RightUpLeg
	{
		OFFSET -7.060478 1.086091 -1.294701
		CHANNELS 3 Xrotation Yrotation Zrotation
		JOINT RightUpLegRoll
		{
			OFFSET 0.000000 -0.000003 18.530800
			CHANNELS 3 Xrotation Yrotation Zrotation
			JOINT RightLeg
			{
				OFFSET 0.000000 0.000004 -22.947601
				CHANNELS 3 Xrotation Yrotation Zrotation
				JOINT RightLegRoll
				{
					OFFSET 0.000000 -0.000004 23.022598
					CHANNELS 3 Xrotation Yrotation Zrotation
					JOINT RightFoot
					{
						OFFSET 0.000000 -0.000003 19.162498
						CHANNELS 3 Xrotation Yrotation Zrotation
						JOINT RightToeBase
						{
							OFFSET 0.000000 -0.000003 16.018799
							CHANNELS 3 Xrotation Yrotation Zrotation
							End Site
							{
								OFFSET 0.006790 0.894205 7.757828
							}
						}
					}
				}
			}
		}
	}
	JOINT LeftUpLeg
	{
		OFFSET 7.060478 1.086091 -1.294701
		CHANNELS 3 Xrotation Yrotation Zrotation
		JOINT LeftUpLegRoll
		{
			OFFSET 0.000000 -0.000003 18.530899
			CHANNELS 3 Xrotation Yrotation Zrotation
			JOINT LeftLeg
			{
				OFFSET 0.000000 -0.000004 22.947495
				CHANNELS 3 Xrotation Yrotation Zrotation
				JOINT LeftLegRoll
				{
					OFFSET 0.000000 -0.000004 23.235504
					CHANNELS 3 Xrotation Yrotation Zrotation
					JOINT LeftFoot
					{
						OFFSET 0.000000 -0.000003 18.949600
						CHANNELS 3 Xrotation Yrotation Zrotation
						JOINT LeftToeBase
						{
							OFFSET 0.000000 -0.000003 16.018799
							CHANNELS 3 Xrotation Yrotation Zrotation
							End Site
							{
								OFFSET -0.030430 0.894205 7.757828
							}
						}
					}
				}
			}
		}
	}
}
MOTION
Frames: 13
Frame Time: 0.041667
48.852398 -30.601816 87.033394 8.180881 -0.194764 6.712499 -0.856939 0.485237 -0.206928 2.290670 0.971349 -0.411486 3.935832 0.966347 -0.423089 -9.382554 -7.943334 -3.510139 -5.519329 5.545144 -1.960835 -20.698350 -56.835336 -24.495679 -400.104777 -113.591838 -389.628278 -0.000001 0.000003 0.000003 21.495990 -10.899386 1.414376 0.000002 0.000003 -3.004459 -5.000191 -7.999770 0.000028 -4.569091 56.555886 5.166390 -48.344735 116.624018 41.292605 -0.000003 -0.000003 0.000001 28.355059 9.658909 -2.289086 0.000002 0.000005 3.000839 -5.000189 7.999741 -0.000044 -29.387797 -163.940263 2.169162 179.999991 -0.000004 -0.880993 128.837462 -1.953372 -1.547334 0.000002 0.000004 2.559350 91.625492 5.993335 4.119899 25.919005 -7.350615 0.647150 -34.870025 172.179056 0.660339 -0.000005 -0.000004 -1.216350 -55.276233 -0.102600 0.545498 -0.000000 0.000003 -2.702840 87.960078 -6.261068 -2.904883 27.413979 7.266017 -2.741252 
48.861801 -30.717318 87.309998 8.051874 -0.161904 6.675113 -0.884679 0.479151 -0.202769 2.235144 0.959271 -0.402933 3.880300 0.954374 -0.414392 -9.017352 -7.964377 -3.434208 -5.593355 5.510879 -1.895655 -20.532571 -56.731322 -24.299346 -399.304825 -113.397587 -388.716147 -0.000001 0.000003 0.000002 21.517048 -10.892890 1.416287 0.000004 0.000003 -3.004460 -5.000191 -7.999771 0.000028 -4.613094 56.596320 5.224096 -48.424856 116.270392 41.558419 -0.000001 -0.000004 0.000000 28.279591 9.968910 -2.332145 0.000002 0.000005 3.000840 -5.000193 7.999740 -0.000044 -28.785200 -164.149472 2.161454 179.999991 -0.000004 -0.908998 129.732217 -1.992908 -1.514850 0.000002 0.000004 2.563689 91.051886 6.063771 3.739491 25.987203 -7.349081 0.742312 -34.324942 172.110713 0.645633 -0.000004 -0.000005 -1.213620 -54.457149 -0.060646 0.580487 -0.000002 0.000003 -2.615010 87.211653 -6.289204 -2.832424 27.519022 7.256487 -2.890713 
48.808800 -30.894316 87.713387 7.922271 -0.121988 6.637384 -0.912788 0.471805 -0.197867 2.178877 0.944681 -0.392900 3.824026 0.939904 -0.404185 -8.633274 -8.004376 -3.364764 -5.669081 5.497727 -1.834503 -20.387679 -56.648804 -24.127700 -398.534571 -113.183761 -387.835517 -0.000001 0.000003 0.000001 21.541667 -10.893053 1.419458 0.000003 0.000003 -3.004461 -5.000192 -7.999771 0.000028 -4.629924 56.622319 5.247494 -48.455674 115.922572 41.753705 -0.000002 -0.000003 0.000001 28.190639 10.259911 -2.373176 0.000004 0.000006 3.000839 -5.000196 7.999741 -0.000043 -28.172794 -164.356345 2.159033 179.999991 -0.000004 -0.936004 130.659156 -2.034666 -1.494085 -0.000000 0.000004 2.549261 90.401269 6.127638 3.406520 26.062952 -7.347125 0.848076 -33.763059 172.043012 0.633865 -0.000003 -0.000004 -1.211310 -53.601911 -0.025205 0.611397 -0.000001 0.000003 -2.525839 86.456056 -6.316115 -2.761794 27.598435 7.248946 -3.004150 
48.821499 -31.047218 88.038704 7.792306 -0.074052 6.599563 -0.941287 0.463060 -0.192217 2.121817 0.927298 -0.381368 3.766969 0.922661 -0.392446 -8.229758 -8.066310 -3.302902 -5.746058 5.508755 -1.778351 -20.266660 -56.590901 -23.984163 -397.798741 -112.948953 -386.991634 -0.000000 0.000005 0.000002 21.570455 -10.900943 1.424059 0.000005 0.000003 -3.004460 -5.000192 -7.999771 0.000027 -4.616843 56.629618 5.232795 -48.424709 115.584026 41.863773 -0.000003 -0.000004 0.000001 28.086851 10.528401 -2.411739 0.000002 0.000006 3.000839 -5.000197 7.999740 -0.000043 -27.550937 -164.560977 2.163486 179.999991 -0.000004 -0.958994 131.618155 -2.079323 -1.486682 0.000002 0.000004 2.513491 89.666997 6.182197 3.128786 26.146951 -7.344612 0.965217 -33.184337 171.975175 0.625518 -0.000005 -0.000005 -1.209470 -52.710008 0.002670 0.637999 -0.000002 0.000003 -2.435621 85.696990 -6.341103 -2.693171 27.648215 7.244073 -3.075913 
48.768997 -31.106415 88.530502 7.661021 -0.018966 6.560710 -0.970524 0.453092 -0.185129 2.063279 0.907466 -0.366974 3.708421 0.903002 -0.377816 -7.802555 -8.154933 -3.245078 -5.826964 5.548337 -1.723175 -20.166980 -56.554178 -23.865835 -397.075506 -112.691530 -386.161274 -0.000000 0.000004 0.000003 21.611412 -10.917103 1.430679 0.000004 0.000003 -3.004461 -5.000194 -7.999771 0.000028 -4.567777 56.625120 5.173633 -48.337314 115.247394 41.896087 -0.000001 -0.000004 0.000001 27.961198 10.781651 -2.448676 0.000003 0.000005 3.000840 -5.000193 7.999740 -0.000043 -26.913401 -164.763438 2.174290 179.999991 -0.000003 -0.981001 132.628996 -2.127711 -1.494735 0.000000 0.000004 2.453141 88.800806 6.228888 2.896654 26.249771 -7.341078 1.108749 -32.578466 171.908130 0.621527 -0.000003 -0.000004 -1.208421 -51.760106 0.022722 0.662856 -0.000002 0.000003 -2.340120 84.891711 -6.365299 -2.622636 27.670399 7.241892 -3.108906 
48.774395 -31.286514 88.851700 7.527351 0.041534 6.519920 -1.000729 0.442185 -0.176113 2.002779 0.885741 -0.348744 3.647925 0.881498 -0.359328 -7.349135 -8.270387 -3.186709 -5.914311 5.616121 -1.664773 -20.084077 -56.532615 -23.767119 -396.338638 -112.413036 -385.316133 -0.000000 0.000002 0.000002 21.669279 -10.940501 1.439386 0.000004 0.000003 -3.004460 -5.000193 -7.999770 0.000028 -4.481450 56.618447 5.069739 -48.209135 114.902879 41.870726 -0.000002 -0.000003 0.000001 27.809798 11.029360 -2.484911 0.000005 0.000006 3.000840 -5.000190 7.999741 -0.000044 -26.255099 -164.964177 2.188789 179.999991 -0.000005 -1.001997 133.706786 -2.181153 -1.517154 0.000000 0.000003 2.368830 87.774577 6.272814 2.693960 26.378763 -7.335939 1.288764 -31.937705 171.843024 0.621957 -0.000005 -0.000003 -1.208341 -50.737213 0.036022 0.688513 -0.000001 0.000003 -2.235939 84.004606 -6.390949 -2.547124 27.671004 7.241880 -3.111790 
48.653896 -31.357716 89.381996 7.391522 0.107111 6.477474 -1.031771 0.430367 -0.165453 1.940620 0.862177 -0.327252 3.585752 0.858192 -0.337554 -6.871448 -8.408724 -3.127209 -6.007367 5.708121 -1.603794 -20.016172 -56.525652 -23.686013 -395.588547 -112.115329 -384.456049 -0.000000 0.000002 0.000002 21.740316 -10.970264 1.449894 0.000001 0.000004 -3.004460 -5.000194 -7.999770 0.000027 -4.362216 56.609670 4.926359 -48.041403 114.551760 41.789560 -0.000001 -0.000005 0.000001 27.636296 11.271140 -2.519978 0.000004 0.000006 3.000850 -5.000192 7.999741 -0.000044 -25.578049 -165.164534 2.206376 179.999991 -0.000004 -1.021996 134.843726 -2.239377 -1.551896 0.000003 0.000003 2.263751 86.611949 6.316068 2.519187 26.528948 -7.328989 1.498643 -31.266536 171.778780 0.626538 -0.000006 -0.000005 -1.209081 -49.650421 0.043464 0.714781 -0.000002 0.000002 -2.124558 83.049964 -6.419171 -2.468009 27.652236 7.243802 -3.087575 
48.668900 -31.522415 89.724083 7.253745 0.177425 6.433676 -1.063479 0.417668 -0.153434 1.877111 0.836822 -0.303071 3.522244 0.833130 -0.313072 -6.371496 -8.566000 -3.066080 -6.105422 5.820338 -1.540922 -19.961947 -56.532475 -23.620896 -394.822801 -111.801925 -383.577932 -0.000000 0.000002 0.000001 21.820907 -11.005617 1.461950 0.000004 0.000003 -3.004460 -5.000194 -7.999770 0.000028 -4.214517 56.599138 4.748854 -47.838638 114.194076 41.658208 -0.000002 -0.000003 0.000002 27.443951 11.506784 -2.553507 0.000001 0.000006 3.000850 -5.000195 7.999742 -0.000043 -24.884425 -165.364904 2.225979 179.999991 -0.000005 -1.041995 136.031960 -2.303558 -1.596328 0.000000 0.000004 2.141071 85.336636 6.360018 2.370334 26.695470 -7.320055 1.731772 -30.569027 171.715122 0.634474 -0.000005 -0.000005 -1.210492 -48.508519 0.045905 0.741453 0.000000 0.000003 -2.007460 82.042197 -6.450659 -2.386762 27.616215 7.247416 -3.039257 
48.724697 -31.715719 90.286491 7.114228 0.252133 6.388801 -1.095698 0.404116 -0.140344 1.812560 0.809733 -0.276773 3.457691 0.806358 -0.286452 -5.851241 -8.738267 -3.002929 -6.207781 5.948777 -1.476848 -19.919661 -56.552453 -23.569820 -394.044077 -111.473960 -382.683943 -0.000000 0.000003 0.000001 21.907195 -11.045417 1.475144 0.000003 0.000004 -3.004460 -5.000188 -7.999770 0.000027 -4.042703 56.586922 4.542467 -47.598526 113.832329 41.474804 -0.000002 -0.000004 0.000001 27.236655 11.735983 -2.585332 0.000002 0.000006 3.000849 -5.000189 7.999740 -0.000043 -24.176781 -165.564796 2.245986 179.999991 -0.000004 -1.060997 137.263525 -2.372796 -1.646653 -0.000001 0.000003 2.003980 83.972224 6.405681 2.245713 26.873574 -7.309088 1.981550 -29.849481 171.651683 0.645060 -0.000005 -0.000004 -1.212401 -47.320616 0.044154 0.768294 -0.000002 0.000003 -1.886120 80.995546 -6.486044 -2.304861 27.565125 7.252431 -2.969848 
48.682899 -31.845617 90.651489 6.973175 0.330890 6.343118 -1.128285 0.389742 -0.126470 1.747272 0.780967 -0.248933 3.392404 0.777928 -0.258269 -5.312697 -8.921583 -2.937510 -6.313717 6.089474 -1.412288 -19.887754 -56.584856 -23.530972 -393.253087 -111.133223 -381.774325 0.000000 0.000003 0.000001 21.995651 -11.088900 1.489240 0.000006 0.000003 -3.004461 -5.000193 -7.999769 0.000028 -3.851238 56.573374 4.312559 -47.327122 113.465814 41.246648 -0.000002 -0.000001 0.000002 27.017686 11.958469 -2.615196 0.000003 0.000006 3.000850 -5.000191 7.999740 -0.000043 -23.456944 -165.766287 2.266178 179.999991 -0.000004 -1.079998 138.530921 -2.447671 -1.702483 -0.000003 0.000004 1.855670 82.542549 6.453425 2.143319 27.058524 -7.296123 2.241388 -29.112032 171.587179 0.658154 -0.000004 -0.000004 -1.214669 -46.095516 0.038971 0.795019 -0.000002 0.000003 -1.762040 79.924497 -6.525446 -2.223753 27.501079 7.258539 -2.882333 
48.791798 -32.077515 91.194702 6.830797 0.413347 6.296926 -1.161084 0.374577 -0.112091 1.681555 0.750585 -0.220121 3.326684 0.747893 -0.229094 -4.757868 -9.111985 -2.869712 -6.422499 6.238436 -1.348017 -19.864885 -56.628982 -23.502751 -392.448408 -110.783244 -380.847031 0.000000 0.000002 0.000001 22.082329 -11.135144 1.503842 0.000003 0.000004 -3.004460 -5.000189 -7.999771 0.000027 -3.644466 56.558587 4.064366 -47.026115 113.095905 40.976169 -0.000002 -0.000005 0.000002 26.790647 12.173829 -2.642954 0.000004 0.000005 3.000850 -5.000192 7.999740 -0.000044 -22.727185 -165.968788 2.285035 179.999991 -0.000004 -1.098003 139.825980 -2.527241 -1.760052 -0.000003 0.000003 1.699310 81.071327 6.503376 2.060798 27.245575 -7.281395 2.504692 -28.361018 171.522060 0.672662 -0.000007 -0.000005 -1.217141 -44.842306 0.031063 0.821287 0.000000 0.000003 -1.636690 78.843264 -6.568936 -2.144584 27.426362 7.265434 -2.779737 
48.754700 -32.212116 91.589691 6.687314 0.499151 6.250485 -1.193954 0.358652 -0.097497 1.615717 0.718650 -0.190908 3.260834 0.716311 -0.199501 -4.188781 -9.305544 -2.799582 -6.533397 6.391719 -1.284798 -19.849390 -56.684194 -23.483299 -391.634332 -110.424126 -379.906077 0.000000 0.000002 0.000000 22.163585 -11.183213 1.518607 0.000003 0.000003 -3.004461 -5.000192 -7.999769 0.000027 -3.426805 56.542959 3.803193 -46.696863 112.723878 40.665491 -0.000003 -0.000002 0.000001 26.559266 12.381810 -2.668647 0.000003 0.000006 3.000850 -5.000194 7.999741 -0.000044 -21.989949 -166.172492 2.301368 179.999991 -0.000005 -1.114996 141.141242 -2.609798 -1.816068 -0.000002 0.000004 1.538090 79.582243 6.555308 1.996453 27.429992 -7.265259 2.764865 -27.600692 171.454947 0.688516 -0.000002 -0.000004 -1.219649 -43.569910 0.021072 0.846699 -0.000002 0.000003 -1.511549 77.766225 -6.616162 -2.068714 27.342902 7.272810 -2.665023 
48.758995 -32.385815 92.126091 6.542926 0.587947 6.204057 -1.226721 0.341999 -0.082971 1.550061 0.685229 -0.161864 3.195177 0.683239 -0.170061 -3.607492 -9.498327 -2.727341 -6.645680 6.545352 -1.223479 -19.840258 -56.749634 -23.471279 -390.811267 -110.058451 -378.951435 -0.000000 0.000003 0.000003 22.235756 -11.232191 1.533157 0.000004 0.000003 -3.004460 -5.000195 -7.999770 0.000028 -3.202613 56.526710 3.534289 -46.342492 112.350232 40.318740 -0.000002 -0.000004 0.000001 26.326961 12.581899 -2.692155 0.000004 0.000005 3.000860 -5.000193 7.999741 -0.000043 -21.247079 -166.378477 2.314515 179.999991 -0.000004 -1.131006 142.468703 -2.695854 -1.870281 -0.000001 0.000003 1.375200 78.099142 6.608881 1.947596 27.607176 -7.248228 3.015349 -26.835105 171.387014 0.704309 -0.000006 -0.000005 -1.222050 -42.287105 0.009580 0.870789 -0.000004 0.000003 -1.388119 76.707806 -6.666502 -1.997043 27.253085 7.280403 -2.541217 
